<mxfile host="app.diagrams.net" modified="2022-05-12T05:06:29.146Z" agent="5.0 (Windows NT 10.0; Win64; x64) AppleWebKit/537.36 (KHTML, like Gecko) Chrome/101.0.4951.41 Safari/537.36 Edg/101.0.1210.32" etag="anL6pGy2ayQX4mqSqVu7" version="16.2.7" type="github">
  <diagram id="OW3oodiwdegHOIOCv6Dr" name="Page-1">
    <mxGraphModel dx="630" dy="362" grid="1" gridSize="10" guides="1" tooltips="1" connect="1" arrows="1" fold="1" page="1" pageScale="1" pageWidth="827" pageHeight="1169" math="1" shadow="0">
      <root>
        <mxCell id="0" />
        <mxCell id="1" parent="0" />
        <mxCell id="OlnVC5k6Rq6hU-Ws5wtK-50" value="" style="group" vertex="1" connectable="0" parent="1">
          <mxGeometry x="130" y="110" width="420" height="170" as="geometry" />
        </mxCell>
        <mxCell id="OlnVC5k6Rq6hU-Ws5wtK-1" value="" style="endArrow=classic;html=1;rounded=0;fillColor=#d80073;strokeColor=#A50040;" edge="1" parent="OlnVC5k6Rq6hU-Ws5wtK-50">
          <mxGeometry width="50" height="50" relative="1" as="geometry">
            <mxPoint x="50" y="40" as="sourcePoint" />
            <mxPoint x="370" y="40" as="targetPoint" />
          </mxGeometry>
        </mxCell>
        <mxCell id="OlnVC5k6Rq6hU-Ws5wtK-2" value="" style="endArrow=classic;html=1;rounded=0;fillColor=#1ba1e2;strokeColor=#006EAF;" edge="1" parent="OlnVC5k6Rq6hU-Ws5wtK-50">
          <mxGeometry width="50" height="50" relative="1" as="geometry">
            <mxPoint x="50" y="120" as="sourcePoint" />
            <mxPoint x="370" y="120" as="targetPoint" />
          </mxGeometry>
        </mxCell>
        <mxCell id="OlnVC5k6Rq6hU-Ws5wtK-3" value="" style="endArrow=classic;html=1;rounded=0;fillColor=#d80073;strokeColor=#A50040;dashed=1;" edge="1" parent="OlnVC5k6Rq6hU-Ws5wtK-50">
          <mxGeometry width="50" height="50" relative="1" as="geometry">
            <mxPoint x="90" y="40" as="sourcePoint" />
            <mxPoint x="170" y="120" as="targetPoint" />
          </mxGeometry>
        </mxCell>
        <mxCell id="OlnVC5k6Rq6hU-Ws5wtK-6" value="" style="endArrow=classic;html=1;rounded=0;fillColor=#1ba1e2;strokeColor=#006EAF;dashed=1;" edge="1" parent="OlnVC5k6Rq6hU-Ws5wtK-50">
          <mxGeometry width="50" height="50" relative="1" as="geometry">
            <mxPoint x="250" y="120" as="sourcePoint" />
            <mxPoint x="330" y="40" as="targetPoint" />
          </mxGeometry>
        </mxCell>
        <mxCell id="OlnVC5k6Rq6hU-Ws5wtK-8" value="&lt;span&gt;$$T_{a1}$$&lt;/span&gt;" style="text;html=1;align=center;verticalAlign=middle;resizable=0;points=[];autosize=1;fontColor=#FF0000;" vertex="1" parent="OlnVC5k6Rq6hU-Ws5wtK-50">
          <mxGeometry x="50" y="20" width="80" height="20" as="geometry" />
        </mxCell>
        <mxCell id="OlnVC5k6Rq6hU-Ws5wtK-11" value="&lt;span&gt;$$T_{a2}$$&lt;/span&gt;" style="text;html=1;align=center;verticalAlign=middle;resizable=0;points=[];autosize=1;strokeColor=none;fillColor=none;fontColor=#FF0000;" vertex="1" parent="OlnVC5k6Rq6hU-Ws5wtK-50">
          <mxGeometry x="290" y="20" width="80" height="20" as="geometry" />
        </mxCell>
        <mxCell id="OlnVC5k6Rq6hU-Ws5wtK-12" value="&lt;span&gt;$$T_{b1}$$&lt;/span&gt;" style="text;html=1;align=center;verticalAlign=middle;resizable=0;points=[];autosize=1;strokeColor=none;fillColor=none;fontColor=#0000FF;" vertex="1" parent="OlnVC5k6Rq6hU-Ws5wtK-50">
          <mxGeometry x="130" y="130" width="80" height="20" as="geometry" />
        </mxCell>
        <mxCell id="OlnVC5k6Rq6hU-Ws5wtK-13" value="&lt;span&gt;$$T_{b2}$$&lt;/span&gt;" style="text;html=1;align=center;verticalAlign=middle;resizable=0;points=[];autosize=1;strokeColor=none;fillColor=none;fontColor=#0000FF;" vertex="1" parent="OlnVC5k6Rq6hU-Ws5wtK-50">
          <mxGeometry x="210" y="130" width="80" height="20" as="geometry" />
        </mxCell>
        <mxCell id="OlnVC5k6Rq6hU-Ws5wtK-14" value="&lt;span&gt;$$t_{a}$$&lt;/span&gt;" style="text;html=1;align=center;verticalAlign=middle;resizable=0;points=[];autosize=1;fontColor=#FF0000;" vertex="1" parent="OlnVC5k6Rq6hU-Ws5wtK-50">
          <mxGeometry x="350" y="30" width="70" height="20" as="geometry" />
        </mxCell>
        <mxCell id="OlnVC5k6Rq6hU-Ws5wtK-15" value="&lt;span&gt;$$t_{b}$$&lt;/span&gt;" style="text;html=1;align=center;verticalAlign=middle;resizable=0;points=[];autosize=1;strokeColor=none;fillColor=none;fontColor=#0000FF;" vertex="1" parent="OlnVC5k6Rq6hU-Ws5wtK-50">
          <mxGeometry x="350" y="110" width="70" height="20" as="geometry" />
        </mxCell>
        <mxCell id="OlnVC5k6Rq6hU-Ws5wtK-16" value="模块A" style="text;html=1;align=center;verticalAlign=middle;resizable=0;points=[];autosize=1;fontColor=#FF0000;" vertex="1" parent="OlnVC5k6Rq6hU-Ws5wtK-50">
          <mxGeometry y="30" width="50" height="20" as="geometry" />
        </mxCell>
        <mxCell id="OlnVC5k6Rq6hU-Ws5wtK-17" value="模块B" style="text;html=1;align=center;verticalAlign=middle;resizable=0;points=[];autosize=1;fontColor=#0000FF;" vertex="1" parent="OlnVC5k6Rq6hU-Ws5wtK-50">
          <mxGeometry y="110" width="50" height="20" as="geometry" />
        </mxCell>
        <mxCell id="OlnVC5k6Rq6hU-Ws5wtK-46" value="模块A发射" style="text;html=1;align=center;verticalAlign=middle;resizable=0;points=[];autosize=1;fontColor=#FF0000;" vertex="1" parent="OlnVC5k6Rq6hU-Ws5wtK-50">
          <mxGeometry x="50" width="70" height="20" as="geometry" />
        </mxCell>
        <mxCell id="OlnVC5k6Rq6hU-Ws5wtK-47" value="模块A接收" style="text;html=1;align=center;verticalAlign=middle;resizable=0;points=[];autosize=1;fontColor=#FF0000;" vertex="1" parent="OlnVC5k6Rq6hU-Ws5wtK-50">
          <mxGeometry x="295" width="70" height="20" as="geometry" />
        </mxCell>
        <mxCell id="OlnVC5k6Rq6hU-Ws5wtK-48" value="模块B接收" style="text;html=1;align=center;verticalAlign=middle;resizable=0;points=[];autosize=1;fontColor=#0000FF;" vertex="1" parent="OlnVC5k6Rq6hU-Ws5wtK-50">
          <mxGeometry x="135" y="150" width="70" height="20" as="geometry" />
        </mxCell>
        <mxCell id="OlnVC5k6Rq6hU-Ws5wtK-49" value="模块B发射" style="text;html=1;align=center;verticalAlign=middle;resizable=0;points=[];autosize=1;fontColor=#0000FF;" vertex="1" parent="OlnVC5k6Rq6hU-Ws5wtK-50">
          <mxGeometry x="215" y="150" width="70" height="20" as="geometry" />
        </mxCell>
        <mxCell id="OlnVC5k6Rq6hU-Ws5wtK-51" value="&lt;div&gt;$$2D=&lt;span&gt;C((T_{a1}-T a_{2})-(T_{b1}-T_{b2}))&lt;/span&gt;&lt;span&gt;$$&lt;/span&gt;&lt;/div&gt;" style="text;html=1;strokeColor=none;fillColor=none;align=center;verticalAlign=middle;whiteSpace=wrap;rounded=0;fontColor=#0000FF;rotation=0;" vertex="1" parent="1">
          <mxGeometry x="220" y="40" width="320" height="30" as="geometry" />
        </mxCell>
        <mxCell id="OlnVC5k6Rq6hU-Ws5wtK-53" style="edgeStyle=none;rounded=0;orthogonalLoop=1;jettySize=auto;html=1;exitX=1;exitY=0.5;exitDx=0;exitDy=0;dashed=1;fontColor=#0000FF;startArrow=none;startFill=0;" edge="1" parent="1">
          <mxGeometry relative="1" as="geometry">
            <mxPoint x="500" y="85" as="sourcePoint" />
            <mxPoint x="500" y="85" as="targetPoint" />
          </mxGeometry>
        </mxCell>
      </root>
    </mxGraphModel>
  </diagram>
</mxfile>
